<?xml version="1.0" encoding="UTF-8"?>
<svg id="Layer_1" xmlns="http://www.w3.org/2000/svg" version="1.1" xmlns:xlink="http://www.w3.org/1999/xlink" viewBox="0 0 1728 1296">
  <!-- Generator: Adobe Illustrator 30.3.0, SVG Export Plug-In . SVG Version: 2.1.3 Build 182)  -->
  <defs>
    <style>
      .st0 {
        fill: url(#New_Gradient_Swatch_211);
      }

      .st1, .st2 {
        font-size: 74.15px;
      }

      .st1, .st2, .st3, .st4, .st5, .st6, .st7, .st8, .st9, .st10, .st11, .st12, .st13, .st14, .st15, .st16, .st17, .st18, .st19, .st20, .st21 {
        stroke: #fff;
        stroke-miterlimit: 10;
      }

      .st1, .st2, .st6, .st16, .st18, .st19 {
        font-family: YuGothic-Bold, 'Yu Gothic';
        font-weight: 700;
      }

      .st1, .st6, .st15, .st22, .st18, .st19, .st21 {
        fill: #65c8d0;
      }

      .st2, .st3, .st5, .st6, .st7, .st8, .st9, .st10, .st11, .st12, .st13, .st14, .st15, .st16, .st17, .st20 {
        stroke-width: 4px;
      }

      .st2, .st23, .st11 {
        fill: #fff;
      }

      .st24 {
        fill: url(#New_Gradient_Swatch_212);
      }

      .st3 {
        fill: url(#New_Gradient_Swatch_22);
      }

      .st25, .st8 {
        fill: url(#New_Gradient_Swatch_2);
      }

      .st25, .st8, .st10 {
        opacity: .52;
      }

      .st4, .st10, .st12 {
        fill: none;
      }

      .st5 {
        fill: url(#New_Gradient_Swatch_28);
      }

      .st26 {
        fill: url(#New_Gradient_Swatch_29);
      }

      .st6, .st18 {
        font-size: 72.26px;
      }

      .st7 {
        fill: url(#New_Gradient_Swatch_24);
      }

      .st27 {
        clip-path: url(#clippath-1);
      }

      .st9 {
        fill: url(#New_Gradient_Swatch_26);
      }

      .st13 {
        fill: url(#New_Gradient_Swatch_23);
      }

      .st14 {
        fill: url(#New_Gradient_Swatch_27);
      }

      .st16, .st19 {
        font-size: 78.27px;
      }

      .st17 {
        fill: url(#New_Gradient_Swatch_21);
      }

      .st20 {
        fill: url(#New_Gradient_Swatch_25);
      }

      .st28 {
        fill: url(#New_Gradient_Swatch_210);
      }

      .st29 {
        clip-path: url(#clippath);
      }
    </style>
    <clipPath id="clippath">
      <path class="st4" d="M378.96,562.7c114.98-139.07,282.88-154,347.7-95.31,55.77,50.5-22.84,203.25,11.51,218.78,42.65,19.28,154.23-220.79,278.62-209.59,104.78,9.44,135.86,189.72,214.15,185.76,80.18-4.05,178.21-158.12,135.86-223.6-95.89-148.26-955.32,102.28-943.2,212.77,8.09,73.74,413.09,164.43,590.89-4.33,59.32-56.31,81.02-129.78,88.65-189.52"/>
    </clipPath>
    <linearGradient id="New_Gradient_Swatch_2" data-name="New Gradient Swatch 2" x1="378.96" y1="568.03" x2="1377" y2="568.03" gradientUnits="userSpaceOnUse">
      <stop offset="0" stop-color="#fff"/>
      <stop offset="1" stop-color="#025"/>
    </linearGradient>
    <clipPath id="clippath-1">
      <path class="st8" d="M378.96,562.7c114.98-139.07,282.88-154,347.7-95.31,55.77,50.5-22.84,203.25,11.51,218.78,42.65,19.28,154.23-220.79,278.62-209.59,104.78,9.44,135.86,189.72,214.15,185.76,80.18-4.05,178.21-158.12,135.86-223.6-95.89-148.26-955.32,102.28-943.2,212.77,8.09,73.74,413.09,164.43,590.89-4.33,59.32-56.31,81.02-129.78,88.65-189.52"/>
    </clipPath>
    <linearGradient id="New_Gradient_Swatch_21" data-name="New Gradient Swatch 2" x1="397.38" y1="563.79" x2="547.05" y2="563.79" xlink:href="#New_Gradient_Swatch_2"/>
    <linearGradient id="New_Gradient_Swatch_22" data-name="New Gradient Swatch 2" x1="548.2" y1="563.79" x2="665.64" y2="563.79" xlink:href="#New_Gradient_Swatch_2"/>
    <linearGradient id="New_Gradient_Swatch_23" data-name="New Gradient Swatch 2" x1="665.64" y1="563.79" x2="778.47" y2="563.79" xlink:href="#New_Gradient_Swatch_2"/>
    <linearGradient id="New_Gradient_Swatch_24" data-name="New Gradient Swatch 2" x1="792.28" y1="563.79" x2="853.3" y2="563.79" xlink:href="#New_Gradient_Swatch_2"/>
    <linearGradient id="New_Gradient_Swatch_25" data-name="New Gradient Swatch 2" x1="861.36" y1="564.33" x2="967.28" y2="564.33" xlink:href="#New_Gradient_Swatch_2"/>
    <linearGradient id="New_Gradient_Swatch_26" data-name="New Gradient Swatch 2" x1="985.14" y1="564.33" x2="1092.78" y2="564.33" xlink:href="#New_Gradient_Swatch_2"/>
    <linearGradient id="New_Gradient_Swatch_27" data-name="New Gradient Swatch 2" x1="1103.14" y1="564.87" x2="1220.57" y2="564.87" xlink:href="#New_Gradient_Swatch_2"/>
    <linearGradient id="New_Gradient_Swatch_28" data-name="New Gradient Swatch 2" x1="1219.42" y1="564.87" x2="1333.95" y2="564.87" xlink:href="#New_Gradient_Swatch_2"/>
    <linearGradient id="New_Gradient_Swatch_29" data-name="New Gradient Swatch 2" x1="1046.14" y1="528.46" x2="1115.21" y2="528.46" xlink:href="#New_Gradient_Swatch_2"/>
    <linearGradient id="New_Gradient_Swatch_210" data-name="New Gradient Swatch 2" x1="550.02" y1="485.39" x2="607.85" y2="485.39" xlink:href="#New_Gradient_Swatch_2"/>
    <linearGradient id="New_Gradient_Swatch_211" data-name="New Gradient Swatch 2" x1="788.77" y1="457.67" x2="857.84" y2="457.67" xlink:href="#New_Gradient_Swatch_2"/>
    <linearGradient id="New_Gradient_Swatch_212" data-name="New Gradient Swatch 2" x1="423.59" y1="608.69" x2="423.59" y2="608.69" xlink:href="#New_Gradient_Swatch_2"/>
  </defs>
  <g id="Layer_11" data-name="Layer_1">
    <g>
      <g>
        <polygon class="st21" points="412.98 660.12 412.98 569.06 433.39 569.06 433.39 494.9 412.98 494.9 412.98 405.14 517.17 405.14 525.43 434.98 533.62 405.14 635.22 405.14 635.22 494.9 614.81 494.9 614.81 569.06 635.22 569.06 635.22 660.12 412.98 660.12"/>
        <path class="st21" d="M447.45,493.42h36.29l32.95,101.99,32.7-101.99h33.84v3.08h-2.52c-5.39.73-9.39,2.71-12,6.67-2.61,3.96-4.28,18.22-4.28,18.22v77.35s1.68,14.18,4.31,18.17,6.62,5.99,11.97,5.79h2.52v4.1h-56.4v-4.1h4.26c5.35.2,9.32-1.78,11.93-5.75,2.61-3.96,3.65-18.22,3.65-18.22v-89.93h-.25l-37.5,118h-1.72l-38.61-118h-.25v85.81c0,5.97.76,11.03,2.29,15.19s3.77,7.37,6.74,9.62c2.97,2.25,6.57,3.48,10.81,3.67v3.71h-40.73v-4.1h.58c5.64.2,10.06-2.31,13.28-7.32,3.22-5.01,4.94-20.36,4.94-20.36v-73.64s-1.41-14.33-4-18.27c-2.59-3.93-6.6-5.9-12.03-6.62h-2.77v-3.08Z"/>
        <path class="st21" d="M561.52,661.42v-83.72l22.61-4.52c1.25-3.42,2.99-8.85,5.06-17.14l37.8-152.19h58.37l43.51,167.82h23.13v89.76h-190.49Z"/>
        <path class="st21" d="M636.14,492.4h2.05l35.34,116.7c1.13,3.63,2.4,6.62,3.8,8.98,1.4,2.36,2.99,4.06,4.75,5.11,1.76,1.05,3.84,1.58,6.23,1.58h2.51v3.08h-51.18v-4.1h6.53c3.25,0,5.62-.68,7.12-2.05,1.5-1.36,2.25-3.47,2.25-6.33,0-1.78-.3-3.93-.89-6.47-.6-2.54-1.9-7.14-3.91-13.8-.12-.38-.31-1.01-.55-1.9-.25-.89-.51-1.74-.8-2.57l-1.42-4.85h-36.49l-2.77,9.9c-.9,3.36-1.36,6.75-1.36,10.18,0,2.92.52,5.8,1.57,8.66,1.05,2.86,2.41,5.01,4.1,6.47,1.11,1.02,2.1,1.7,2.99,2.05.88.35,2.15.59,3.79.71v4.1h-35.51v-3.71c2.58-.44,4.63-1.14,6.15-2.09,1.52-.95,3.21-2.53,5.09-4.75,4.41-5.2,8.72-14.99,12.92-29.37l27.71-95.52ZM629.32,523.42l-17.17,59.27h34.77l-17.6-59.27Z"/>
        <polygon class="st21" points="690.78 660.12 690.78 576.86 677.17 576.86 677.17 405.14 863.13 405.14 863.13 572.99 849.52 574.48 849.52 660.12 690.78 660.12"/>
        <path class="st21" d="M690.81,493.42h102.36v67.74l-2.04.19c-1.04-16.87-4.38-31.36-10.02-43.48-6.68-13.76-15.16-20.64-25.43-21.37h-4.29v102.24s5,24.17,15.56,23.97h13.68v4.1h-77.29v-4.1h13.49c10.61.2,15.75-23.97,15.75-23.97v-101.21h-5.61c-10.39,0-18.82,7.38-25.31,22.15-3.2,7.26-5.63,15.9-7.29,25.94-.54,3.41-1.08,8.58-1.62,15.53h-1.95v-67.72Z"/>
        <polygon class="st21" points="801.9 660.12 801.9 569.06 821.17 569.06 821.17 494.9 801.9 494.9 801.9 405.14 936.83 405.14 936.83 496.2 916.42 496.2 916.42 569.06 936.83 569.06 936.83 660.12 801.9 660.12"/>
        <path class="st21" d="M805.71,622.71h1.78c5.41,0,9.43-1.99,12.05-5.97,2.62-3.98,3.93-10.08,3.93-18.3v-80.63c-.34-4.2-.85-7.55-1.54-10.03-.69-2.48-1.73-4.55-3.11-6.21-2.52-3.38-6.29-5.06-11.32-5.06h-1.78v-3.08h55.36v4.1h-2.51c-5.54,0-9.64,1.96-12.3,5.87-2.66,3.92-3.99,9.98-3.99,18.19v77.04c0,8.15,1.34,14.2,4.02,18.15,2.68,3.95,6.77,5.92,12.27,5.92h2.51v4.1h-55.36v-4.1Z"/>
        <polygon class="st21" points="869.93 660.12 869.93 569.06 889.21 569.06 889.21 496.2 869.93 496.2 869.93 406.44 1049.08 406.44 1049.08 565.15 1015.06 565.15 1015.06 619.79 1008.26 619.79 1008.26 660.12 869.93 660.12"/>
        <path class="st21" d="M904.93,497.53v58.49h5.49c5.78,0,10.29-2.91,13.54-8.73,3.24-5.82,5.57-15.22,6.99-28.21h2.18v75.93h-2.31c-.67-6.57-1.48-11.78-2.43-15.63-.96-3.85-2.27-7.3-3.93-10.33-3.54-6.63-8.61-9.95-15.22-9.95h-4.3v39.78c0,8.07,1.29,14.06,3.86,17.97,2.57,3.91,6.5,5.86,11.77,5.86h6.3v4.1h-58.49v-4.1h2.15c5.28,0,9.21-1.97,11.77-5.92,2.56-3.95,3.84-10,3.84-18.15v-77.04c0-8.21-1.27-14.28-3.81-18.19-2.54-3.92-6.47-5.87-11.8-5.87h-2.15v-3.08h96.09v57.46h-2.08c-.63-4.99-1.32-9.56-2.08-13.72-.76-4.16-1.49-7.35-2.21-9.59-2.1-7.1-4.66-12.93-7.66-17.5-3.01-4.57-6.56-7.98-10.66-10.21-4.1-2.24-8.76-3.36-13.97-3.36h-20.88Z"/>
        <polygon class="st21" points="993.44 660.12 990.31 570.36 1012.8 570.36 1012.8 496.2 992.39 496.2 992.39 406.44 1131.85 406.44 1131.85 496.2 1108.04 496.2 1108.04 500.11 1172.67 500.11 1172.67 660.12 993.44 660.12"/>
        <path class="st21" d="M981.18,494.45h59.54v3.08h-6.54c-5.39.2-9.38,2.16-11.97,6.09-2.59,3.93-3.43,18.27-3.43,18.27v101.84h22.5c4.43,0,8.62-1.51,12.55-4.53,3.94-3.02,7.35-7.23,10.25-12.64,1.74-3.37,3.27-6.71,4.6-10.01,1.33-3.31,2.59-7.31,3.79-12.02,1.2-4.7,2.38-10.11,3.54-16.21h2.3v58.49h-97.52l-.13-3.08h3.26c10.61-.14,16.05-24.5,16.05-24.5v-77.35s-5.44-24.16-16.05-24.36h-2.75v-3.08Z"/>
        <path class="st21" d="M1108.04,662.72v-83.72l22.61-4.53c1.25-3.42,2.99-8.85,5.06-17.14l37.81-152.2h58.38l43.18,166.52h23.46v91.06h-190.49Z"/>
        <path class="st21" d="M1139.58,493.42h2.05l35.07,115.79c1.12,3.6,2.38,6.57,3.77,8.91,1.39,2.34,2.96,4.03,4.71,5.07,1.75,1.04,3.81,1.56,6.18,1.56h2.89v4.1h-51.18v-4.1h6.53c3.25,0,5.62-.68,7.12-2.05,1.5-1.36,2.25-3.47,2.25-6.33,0-1.78-.3-3.93-.89-6.47-.6-2.54-1.9-7.14-3.91-13.8-.12-.38-.31-1.01-.55-1.9-.25-.89-.51-1.74-.8-2.57l-1.42-4.85h-36.48l-2.77,9.9c-.9,3.36-1.36,6.75-1.36,10.18,0,2.92.52,5.8,1.57,8.66,1.05,2.86,2.41,5.01,4.1,6.47,1.11,1.02,2.11,1.7,2.99,2.05.88.35,2.15.59,3.79.71v4.1h-35.51v-3.71c2.58-.44,4.63-1.14,6.15-2.09,1.52-.95,3.21-2.53,5.09-4.75,4.41-5.2,8.72-14.99,12.92-29.37l27.71-95.52ZM1132.57,524.44l-17.16,59.27h34.77l-17.6-59.27Z"/>
        <path class="st21" d="M1222.56,661.42v-91.06h20.41v-74.15h-20.41v-89.76h107.12c9.34,0,18.53,1.68,27.31,4.98,10.22,3.85,18.88,9.57,25.74,17,7.37,7.82,13.13,17.27,17.13,28.1,3.91,10.6,5.89,21.96,5.89,33.76,0,13.21-2.69,25.67-7.88,36.88,8.05,13.94,12.3,30.35,12.3,48.22,0,16.72-3.61,31.95-10.73,45.27-7.3,13.67-17.64,24.22-30.72,31.35-11.47,6.25-24.55,9.42-38.86,9.42h-107.33Z"/>
        <path class="st21" d="M1193.21,494.45h64.21c4.97,0,9.78.75,14.42,2.24,4.64,1.5,8.28,3.48,10.91,5.97,3.26,2.93,5.79,6.48,7.59,10.65,1.8,4.17,2.7,8.64,2.7,13.41,0,7.77-2.82,14.48-8.47,20.15-2.26,2.29-4.68,4.2-7.27,5.73-2.59,1.53-6.25,3.28-10.97,5.25v.38c6.02,1.72,10.97,3.79,14.86,6.21,10.62,7.13,15.93,16.93,15.93,29.41,0,6.87-1.6,12.87-4.8,18-3.2,5.12-7.77,9.07-13.7,11.84-5.94,2.77-12.94,4.15-21.01,4.15h-64.4v-4.1h2.61c5.48,0,9.55-1.99,12.21-5.96,2.65-3.97,3.98-10.06,3.98-18.27v-77.55c0-8.27-1.33-14.4-3.98-18.41-2.66-4.01-6.72-6.01-12.21-6.01h-2.61v-3.08ZM1230.81,497.53v58.49h19.07c15.65,0,23.47-10.35,23.47-31.06,0-9.3-1.67-16.2-5-20.69-3.33-4.49-8.49-6.74-15.45-6.74h-22.09ZM1230.81,559.09v64.64h19.77c8.35,0,14.75-2.82,19.21-8.46,4.45-5.64,6.67-13.66,6.67-24.05,0-8.86-1.81-15.9-5.42-21.13-2.73-4.14-6.07-7.01-10.01-8.61-3.95-1.59-9.72-2.39-17.32-2.39h-12.91Z"/>
        <text class="st1" transform="translate(503.03 695.5) rotate(.49) scale(1.11 1) skewX(-.02)"><tspan x="0" y="0">数学</tspan></text>
        <g>
          <path class="st21" d="M1123.36,603.12c-.32-94.54-.63-94.55-5.54-.18.34-94.67-3.58-96.83-67.87-37.5,58.59-66.66,57.15-71.38-24.88-81.58,82.75-4.43,89.77-12.05,98.24-106.59.32,94.54.63,94.55,5.54.18,4.2,94.96,10.98,103.66,92.75,119.07-82.75,4.44-89.77,12.06-98.24,106.6Z"/>
          <path class="st21" d="M1123.36,603.12c-.32-94.54-.63-94.55-5.54-.18.34-94.67-3.58-96.83-67.87-37.5,58.59-66.66,57.15-71.38-24.88-81.58,82.75-4.43,89.77-12.05,98.24-106.59.32,94.54.63,94.55,5.54.18,4.2,94.96,10.98,103.66,92.75,119.07-82.75,4.44-89.77,12.06-98.24,106.6Z"/>
        </g>
        <g>
          <path class="st21" d="M1036.01,524.92c26.39-1.32,28.8-3.44,33.09-29.05,1.34,25.92,3.5,28.29,29.57,32.5-26.39,1.32-28.8,3.44-33.09,29.05-1.34-25.92-3.5-28.29-29.57-32.5Z"/>
          <path class="st21" d="M1036.01,524.92c26.39-1.32,28.8-3.44,33.09-29.05,1.34,25.92,3.5,28.29,29.57,32.5-26.39,1.32-28.8,3.44-33.09,29.05-1.34-25.92-3.5-28.29-29.57-32.5Z"/>
        </g>
        <g>
          <path class="st21" d="M629.08,546.6c-.17-90.53-.46-90.54-5.16-.17-3.9-90.93-10.29-99.25-87.45-113.94,78.1-4.33,84.74-11.63,92.86-102.17.17,90.53.46,90.54,5.16.17-.36,90.65,3.5,92.86,65.02,37.15-56.28,62.76-54.98,67.2,22.43,76.79-78.09,4.32-84.74,11.63-92.86,102.16Z"/>
          <path class="st21" d="M629.08,546.6c-.17-90.53-.46-90.54-5.16-.17-3.9-90.93-10.29-99.25-87.45-113.94,78.1-4.33,84.74-11.63,92.86-102.17.17,90.53.46,90.54,5.16.17-.36,90.65,3.5,92.86,65.02,37.15-56.28,62.76-54.98,67.2,22.43,76.79-78.09,4.32-84.74,11.63-92.86,102.16Z"/>
        </g>
        <g>
          <path class="st21" d="M585.92,484.4c22.1-1.22,24.13-3.08,27.78-25.56,1.07,22.74,2.87,24.82,24.69,28.46-22.1,1.22-24.13,3.08-27.78,25.56-1.07-22.74-2.87-24.82-24.69-28.46Z"/>
          <path class="st21" d="M585.92,484.4c22.1-1.22,24.13-3.08,27.78-25.56,1.07,22.74,2.87,24.82,24.69,28.46-22.1,1.22-24.13,3.08-27.78,25.56-1.07-22.74-2.87-24.82-24.69-28.46Z"/>
        </g>
        <g>
          <path class="st21" d="M869.9,518.09c-.33-94.54-.63-94.55-5.55-.18-4.2-94.96-10.97-103.66-92.75-119.07,82.75-4.43,89.77-12.06,98.24-106.6.33,94.54.63,94.55,5.55.18,4.2,94.96,10.97,103.66,92.75,119.07-82.75,4.43-89.77,12.06-98.24,106.6Z"/>
          <path class="st21" d="M869.9,518.09c-.33-94.54-.63-94.55-5.55-.18-4.2-94.96-10.97-103.66-92.75-119.07,82.75-4.43,89.77-12.06,98.24-106.6.33,94.54.63,94.55,5.55.18,4.2,94.96,10.97,103.66,92.75,119.07-82.75,4.43-89.77,12.06-98.24,106.6Z"/>
        </g>
        <g>
          <path class="st21" d="M802.52,457.86c26.39-1.32,28.8-3.44,33.09-29.05,1.34,25.92,3.5,28.29,29.57,32.5-26.39,1.32-28.8,3.44-33.09,29.05-1.34-25.92-3.5-28.29-29.57-32.5Z"/>
          <path class="st21" d="M802.52,457.86c26.39-1.32,28.8-3.44,33.09-29.05,1.34,25.92,3.5,28.29,29.57,32.5-26.39,1.32-28.8,3.44-33.09,29.05-1.34-25.92-3.5-28.29-29.57-32.5Z"/>
        </g>
        <g>
          <path class="st21" d="M476.22,586.57"/>
          <path class="st21" d="M476.22,592.57c7.72,0,7.73-12,0-12s-7.73,12,0,12h0Z"/>
        </g>
        <g>
          <path class="st21" d="M471.23,602.66"/>
          <path class="st21" d="M471.23,608.66c7.72,0,7.73-12,0-12s-7.73,12,0,12h0Z"/>
        </g>
      </g>
      <g>
        <path class="st21" d="M408.83,485.69h38.88l35.3,99.4,35.04-99.4h36.26v3h-2.7c-5.77.71-10.06,2.64-12.85,6.5-2.8,3.86-4.59,17.76-4.59,17.76v75.38s1.8,13.82,4.62,17.71,7.09,5.84,12.82,5.65h2.7v4h-60.43v-4h4.57c5.73.19,9.99-1.74,12.79-5.6,2.8-3.86,3.91-17.76,3.91-17.76v-87.64h-.27l-40.18,115h-1.84l-41.37-115h-.27v83.63c0,5.82.82,10.75,2.45,14.8s4.04,7.18,7.22,9.37c3.18,2.2,7.04,3.39,11.59,3.57v3.62h-43.64v-4h.62c6.04.19,10.78-2.25,14.23-7.13,3.45-4.88,5.3-19.84,5.3-19.84v-71.77s-1.51-13.97-4.29-17.8c-2.77-3.83-7.07-5.75-12.89-6.46h-2.97v-3Z"/>
        <path class="st21" d="M611,484.69h2.19l37.86,113.74c1.21,3.54,2.57,6.45,4.08,8.75,1.5,2.3,3.2,3.96,5.09,4.98,1.89,1.02,4.11,1.54,6.67,1.54h2.69v3h-54.83v-4h7c3.48,0,6.02-.66,7.63-1.99,1.61-1.33,2.41-3.39,2.41-6.17,0-1.73-.32-3.83-.96-6.31-.64-2.47-2.04-6.95-4.19-13.45-.13-.37-.33-.99-.59-1.85-.26-.86-.55-1.7-.86-2.5l-1.52-4.73h-39.09l-2.97,9.64c-.97,3.28-1.45,6.58-1.45,9.92,0,2.84.56,5.66,1.68,8.44,1.12,2.78,2.59,4.88,4.39,6.31,1.19.99,2.26,1.65,3.2,1.99.95.34,2.3.57,4.06.7v4h-38.05v-3.61c2.76-.43,4.96-1.11,6.59-2.04,1.63-.93,3.44-2.47,5.45-4.63,4.72-5.06,9.34-14.6,13.84-28.62l29.69-93.09ZM603.69,514.92l-18.39,57.77h37.25l-18.86-57.77Z"/>
        <path class="st21" d="M669.57,485.69h109.67v66.02l-2.18.19c-1.12-16.44-4.7-30.57-10.74-42.37-7.16-13.41-16.24-20.12-27.25-20.83h-4.59v99.64s5.35,23.55,16.67,23.36h14.66v4h-82.81v-4h14.46c11.37.19,16.88-23.36,16.88-23.36v-98.64h-6.01c-11.13,0-20.17,7.2-27.12,21.59-3.43,7.07-6.03,15.5-7.81,25.28-.58,3.32-1.16,8.37-1.74,15.13h-2.09v-66Z"/>
        <path class="st21" d="M792.67,611.69h1.9c5.8,0,10.1-1.94,12.91-5.82,2.81-3.88,4.21-9.82,4.21-17.83v-78.59c-.36-4.1-.91-7.36-1.65-9.78-.74-2.42-1.85-4.44-3.34-6.05-2.7-3.29-6.74-4.93-12.13-4.93h-1.9v-3h59.31v4h-2.69c-5.93,0-10.33,1.91-13.18,5.73-2.85,3.82-4.28,9.73-4.28,17.73v75.08c0,7.94,1.44,13.84,4.31,17.69,2.87,3.85,7.25,5.77,13.14,5.77h2.69v4h-59.31v-4Z"/>
        <path class="st21" d="M898.98,489.69v57h5.88c6.19,0,11.03-2.84,14.51-8.51,3.48-5.67,5.97-14.84,7.49-27.49h2.34v74h-2.47c-.71-6.4-1.58-11.48-2.61-15.24-1.03-3.75-2.43-7.11-4.21-10.07-3.79-6.46-9.23-9.7-16.31-9.7h-4.61v38.77c0,7.86,1.38,13.7,4.14,17.51,2.76,3.81,6.96,5.72,12.61,5.72h6.75v4h-62.67v-4h2.3c5.66,0,9.86-1.92,12.61-5.77,2.74-3.85,4.11-9.74,4.11-17.69v-75.08c0-8-1.36-13.91-4.08-17.73-2.72-3.82-6.93-5.73-12.64-5.73h-2.3v-3h102.95v56h-2.23c-.68-4.86-1.42-9.32-2.23-13.37-.81-4.05-1.6-7.17-2.37-9.35-2.25-6.92-4.99-12.6-8.21-17.06-3.22-4.45-7.03-7.77-11.42-9.96-4.39-2.18-9.38-3.27-14.97-3.27h-22.37Z"/>
        <path class="st21" d="M980.68,486.69h63.79v3h-7.01c-5.77.19-10.05,2.11-12.82,5.94-2.77,3.83-3.67,17.8-3.67,17.8v99.26h24.1c4.75,0,9.23-1.47,13.45-4.41,4.22-2.94,7.88-7.05,10.99-12.32,1.86-3.28,3.51-6.54,4.93-9.76,1.42-3.22,2.77-7.12,4.06-11.71,1.29-4.59,2.55-9.85,3.8-15.8h2.46v57h-104.48l-.13-3h3.49c11.37-.14,17.2-23.87,17.2-23.87v-75.38s-5.83-23.55-17.2-23.74h-2.95v-3Z"/>
        <path class="st21" d="M1150.39,485.69h2.2l37.57,112.85c1.2,3.51,2.55,6.4,4.04,8.68,1.49,2.28,3.18,3.92,5.05,4.94,1.87,1.02,4.08,1.52,6.62,1.52h3.1v4h-54.83v-4h7c3.48,0,6.02-.66,7.63-1.99,1.61-1.33,2.41-3.39,2.41-6.17,0-1.73-.32-3.83-.96-6.31-.64-2.47-2.04-6.95-4.19-13.45-.13-.37-.33-.99-.59-1.85-.26-.86-.55-1.7-.86-2.5l-1.52-4.73h-39.09l-2.97,9.64c-.97,3.28-1.45,6.58-1.45,9.92,0,2.84.56,5.66,1.68,8.44,1.12,2.78,2.59,4.88,4.39,6.31,1.19.99,2.26,1.65,3.2,1.99.95.34,2.3.57,4.06.7v4h-38.05v-3.61c2.76-.43,4.96-1.11,6.59-2.04,1.63-.93,3.44-2.47,5.45-4.63,4.73-5.06,9.34-14.6,13.84-28.62l29.69-93.09ZM1142.88,515.92l-18.39,57.77h37.25l-18.86-57.77Z"/>
        <path class="st21" d="M1207.85,486.69h68.8c5.33,0,10.48.73,15.45,2.19,4.97,1.46,8.87,3.4,11.69,5.82,3.49,2.85,6.2,6.31,8.13,10.38,1.93,4.06,2.89,8.42,2.89,13.07,0,7.57-3.02,14.11-9.07,19.63-2.42,2.23-5.02,4.09-7.79,5.58-2.78,1.49-6.7,3.2-11.76,5.12v.37c6.45,1.67,11.76,3.69,15.92,6.05,11.38,6.95,17.06,16.5,17.06,28.66,0,6.7-1.71,12.55-5.14,17.54-3.43,4.99-8.32,8.84-14.68,11.54-6.36,2.7-13.86,4.05-22.51,4.05h-69v-4h2.8c5.87,0,10.23-1.94,13.08-5.81,2.84-3.87,4.27-9.81,4.27-17.8v-75.58c0-8.06-1.42-14.04-4.27-17.94-2.85-3.9-7.2-5.86-13.08-5.86h-2.8v-3ZM1248.13,489.69v57h20.43c16.76,0,25.15-10.09,25.15-30.27,0-9.06-1.79-15.79-5.36-20.16-3.57-4.38-9.09-6.57-16.55-6.57h-23.66ZM1248.13,549.69v63h21.18c8.95,0,15.81-2.75,20.58-8.25,4.77-5.5,7.15-13.31,7.15-23.44,0-8.64-1.93-15.5-5.8-20.6-2.92-4.04-6.5-6.83-10.73-8.39-4.23-1.55-10.41-2.33-18.55-2.33h-13.83Z"/>
        <text class="st18" transform="translate(468.38 682.64) rotate(.45) scale(1.22 1) skewX(-.09)"><tspan x="0" y="0">数学</tspan></text>
        <g>
          <path class="st21" d="M1039.42,516.39c28.27-1.29,30.86-3.35,35.45-28.31,1.44,25.26,3.75,27.57,31.68,31.68-28.27,1.29-30.86,3.35-35.45,28.31-1.44-25.26-3.75-27.57-31.68-31.68Z"/>
          <path class="st21" d="M1039.42,516.39c28.27-1.29,30.86-3.35,35.45-28.31,1.44,25.26,3.75,27.57,31.68,31.68-28.27,1.29-30.86,3.35-35.45,28.31-1.44-25.26-3.75-27.57-31.68-31.68Z"/>
        </g>
        <g>
          <path class="st21" d="M557.2,476.9c23.68-1.19,25.85-3,29.76-24.91,1.14,22.17,3.07,24.19,26.45,27.73-23.68,1.19-25.85,3-29.76,24.91-1.14-22.17-3.07-24.19-26.45-27.73Z"/>
          <path class="st21" d="M557.2,476.9c23.68-1.19,25.85-3,29.76-24.91,1.14,22.17,3.07,24.19,26.45,27.73-23.68,1.19-25.85,3-29.76,24.91-1.14-22.17-3.07-24.19-26.45-27.73Z"/>
        </g>
        <g>
          <path class="st21" d="M789.26,451.03c28.27-1.29,30.86-3.35,35.45-28.31,1.44,25.26,3.75,27.57,31.68,31.68-28.27,1.29-30.86,3.35-35.45,28.31-1.44-25.26-3.75-27.57-31.68-31.68Z"/>
          <path class="st21" d="M789.26,451.03c28.27-1.29,30.86-3.35,35.45-28.31,1.44,25.26,3.75,27.57,31.68,31.68-28.27,1.29-30.86,3.35-35.45,28.31-1.44-25.26-3.75-27.57-31.68-31.68Z"/>
        </g>
        <g>
          <path class="st21" d="M434.31,592.15"/>
          <path class="st21" d="M434.31,598.15c7.72,0,7.73-12,0-12s-7.73,12,0,12h0Z"/>
        </g>
      </g>
      <g>
        <g class="st29">
          <g>
            <path class="st21" d="M397.38,493.39h40l36.32,107.65,36.05-107.65h37.31v3.25h-2.78c-5.94.77-10.35,2.86-13.22,7.04-2.88,4.18-4.72,19.23-4.72,19.23v81.65s1.85,14.96,4.75,19.18,7.3,6.33,13.19,6.12h2.78v4.33h-62.17v-4.33h4.7c5.89.21,10.28-1.88,13.15-6.07,2.88-4.18,4.02-19.23,4.02-19.23v-94.92h-.28l-41.34,124.55h-1.89l-42.56-124.55h-.28v90.58c0,6.3.84,11.64,2.52,16.03,1.68,4.39,4.16,7.77,7.43,10.15,3.27,2.38,7.25,3.67,11.92,3.87v3.92h-44.9v-4.33h.64c6.21.21,11.09-2.43,14.64-7.72,3.54-5.29,5.45-21.49,5.45-21.49v-77.73s-1.56-15.13-4.41-19.28c-2.85-4.15-7.27-6.23-13.26-6.99h-3.05v-3.25Z"/>
            <path class="st21" d="M605.37,492.3h2.26l38.96,123.19c1.25,3.83,2.64,6.99,4.19,9.48,1.55,2.49,3.29,4.28,5.23,5.39,1.94,1.11,4.23,1.66,6.86,1.66h2.77v3.25h-56.41v-4.33h7.2c3.58,0,6.19-.72,7.85-2.16,1.65-1.44,2.48-3.67,2.48-6.68,0-1.87-.33-4.15-.99-6.83-.66-2.68-2.1-7.53-4.31-14.56-.14-.4-.34-1.07-.61-2.01-.27-.94-.57-1.84-.88-2.71l-1.56-5.12h-40.22l-3.06,10.45c-1,3.55-1.49,7.13-1.49,10.75,0,3.08.58,6.13,1.73,9.14,1.16,3.01,2.66,5.29,4.52,6.83,1.22,1.07,2.32,1.79,3.29,2.16.97.37,2.37.62,4.18.75v4.33h-39.14v-3.91c2.84-.47,5.1-1.2,6.78-2.21,1.67-1,3.54-2.67,5.61-5.02,4.86-5.48,9.61-15.82,14.24-31l30.55-100.83ZM597.86,525.05l-18.92,62.57h38.32l-19.4-62.57Z"/>
            <path class="st21" d="M665.64,493.39h112.83v71.5l-2.24.2c-1.15-17.81-4.83-33.11-11.05-45.89-7.37-14.53-16.71-21.79-28.04-22.56h-4.72v107.92s5.51,25.51,17.15,25.3h15.08v4.33h-85.2v-4.33h14.87c11.69.21,17.37-25.3,17.37-25.3v-106.84h-6.18c-11.45,0-20.75,7.79-27.9,23.38-3.53,7.66-6.21,16.79-8.04,27.38-.6,3.6-1.19,9.06-1.79,16.39h-2.15v-71.48Z"/>
            <path class="st21" d="M792.28,629.85h1.96c5.96,0,10.39-2.1,13.28-6.3,2.89-4.2,4.33-10.64,4.33-19.31v-85.11c-.37-4.44-.94-7.97-1.7-10.59-.76-2.62-1.91-4.81-3.43-6.55-2.77-3.56-6.93-5.34-12.48-5.34h-1.96v-3.25h61.02v4.33h-2.77c-6.1,0-10.62,2.07-13.56,6.2-2.93,4.14-4.4,10.54-4.4,19.21v81.32c0,8.6,1.48,14.99,4.44,19.16,2.96,4.17,7.46,6.25,13.52,6.25h2.77v4.33h-61.02v-4.33Z"/>
            <path class="st21" d="M901.66,497.72v61.74h6.05c6.37,0,11.35-3.07,14.92-9.22,3.58-6.14,6.14-16.07,7.7-29.77h2.41v80.15h-2.55c-.73-6.93-1.63-12.44-2.68-16.5-1.05-4.07-2.5-7.7-4.33-10.9-3.9-7-9.49-10.5-16.78-10.5h-4.74v41.99c0,8.52,1.42,14.84,4.26,18.97,2.84,4.13,7.16,6.19,12.97,6.19h6.95v4.33h-64.47v-4.33h2.37c5.82,0,10.15-2.08,12.97-6.25,2.82-4.17,4.23-10.55,4.23-19.16v-81.32c0-8.67-1.4-15.07-4.2-19.21-2.8-4.13-7.13-6.2-13-6.2h-2.37v-3.25h105.92v60.65h-2.29c-.69-5.26-1.46-10.09-2.29-14.48-.83-4.39-1.65-7.76-2.43-10.12-2.32-7.49-5.13-13.65-8.45-18.48-3.31-4.82-7.23-8.42-11.75-10.78-4.52-2.36-9.65-3.54-15.4-3.54h-23.01Z"/>
            <path class="st21" d="M985.7,494.47h65.63v3.25h-7.21c-5.94.21-10.34,2.28-13.19,6.43-2.85,4.15-3.78,19.28-3.78,19.28v107.5h24.8c4.89,0,9.5-1.59,13.84-4.78,4.34-3.19,8.11-7.63,11.3-13.34,1.92-3.56,3.61-7.08,5.07-10.57,1.46-3.49,2.85-7.72,4.18-12.68,1.32-4.97,2.63-10.67,3.9-17.11h2.53v61.74h-107.49l-.14-3.25h3.59c11.69-.15,17.69-25.86,17.69-25.86v-81.65s-6-25.51-17.69-25.72h-3.03v-3.25Z"/>
            <path class="st21" d="M1160.31,493.39h2.26l38.65,122.23c1.24,3.8,2.62,6.94,4.16,9.4,1.54,2.47,3.27,4.25,5.19,5.35,1.93,1.1,4.2,1.65,6.81,1.65h3.19v4.33h-56.41v-4.33h7.2c3.58,0,6.19-.72,7.85-2.16,1.65-1.44,2.48-3.67,2.48-6.68,0-1.87-.33-4.15-.98-6.83-.66-2.68-2.1-7.53-4.31-14.56-.14-.4-.34-1.07-.61-2.01-.27-.94-.57-1.84-.88-2.71l-1.56-5.12h-40.22l-3.06,10.45c-1,3.55-1.49,7.13-1.49,10.75,0,3.08.58,6.13,1.73,9.14,1.15,3.01,2.66,5.29,4.52,6.83,1.22,1.07,2.32,1.79,3.3,2.16.97.37,2.37.62,4.18.75v4.33h-39.14v-3.91c2.84-.47,5.1-1.2,6.78-2.21,1.67-1,3.54-2.67,5.61-5.02,4.86-5.48,9.61-15.82,14.24-31l30.55-100.83ZM1152.58,526.13l-18.92,62.57h38.33l-19.4-62.57Z"/>
            <path class="st21" d="M1219.42,494.47h70.78c5.48,0,10.78.79,15.9,2.37,5.11,1.58,9.12,3.68,12.03,6.3,3.59,3.09,6.38,6.84,8.36,11.24,1.98,4.4,2.97,9.12,2.97,14.16,0,8.2-3.11,15.29-9.33,21.27-2.49,2.42-5.16,4.43-8.02,6.05-2.86,1.61-6.89,3.46-12.1,5.54v.4c6.64,1.81,12.1,4,16.38,6.55,11.7,7.53,17.56,17.87,17.56,31.04,0,7.26-1.76,13.59-5.29,19-3.52,5.41-8.56,9.57-15.1,12.5-6.54,2.92-14.26,4.38-23.15,4.38h-70.98v-4.33h2.88c6.04,0,10.53-2.1,13.45-6.29,2.93-4.19,4.39-10.62,4.39-19.28v-81.86c0-8.73-1.46-15.2-4.39-19.43-2.93-4.23-7.41-6.34-13.45-6.34h-2.88v-3.25ZM1260.87,497.72v61.74h21.02c17.25,0,25.87-10.93,25.87-32.78,0-9.82-1.84-17.1-5.51-21.84-3.68-4.74-9.35-7.11-17.03-7.11h-24.35ZM1260.87,562.7v68.23h21.79c9.21,0,16.26-2.98,21.17-8.93,4.9-5.96,7.36-14.42,7.36-25.39,0-9.35-1.99-16.79-5.97-22.31-3.01-4.37-6.69-7.4-11.04-9.08-4.35-1.68-10.71-2.52-19.09-2.52h-14.23Z"/>
            <text class="st19" transform="translate(458.88 680.64) rotate(.47) scale(.68 .58) skewX(-.05)"><tspan x="0" y="0">数学</tspan></text>
            <g>
              <path class="st21" d="M1046.14,526.63c29.09-1.39,31.75-3.63,36.47-30.66,1.48,27.36,3.86,29.86,32.6,34.31-29.09,1.39-31.75,3.63-36.47,30.66-1.48-27.36-3.86-29.86-32.6-34.31Z"/>
              <path class="st21" d="M1046.14,526.63c29.09-1.39,31.75-3.63,36.47-30.66,1.48,27.36,3.86,29.86,32.6,34.31-29.09,1.39-31.75,3.63-36.47,30.66-1.48-27.36-3.86-29.86-32.6-34.31Z"/>
            </g>
            <g>
              <path class="st21" d="M550.02,483.86c24.36-1.28,26.59-3.25,30.62-26.98,1.18,24.01,3.16,26.2,27.22,30.04-24.36,1.28-26.59,3.25-30.62,26.98-1.18-24.01-3.16-26.2-27.22-30.04Z"/>
              <path class="st21" d="M550.02,483.86c24.36-1.28,26.59-3.25,30.62-26.98,1.18,24.01,3.16,26.2,27.22,30.04-24.36,1.28-26.59,3.25-30.62,26.98-1.18-24.01-3.16-26.2-27.22-30.04Z"/>
            </g>
            <g>
              <path class="st21" d="M788.77,455.84c29.09-1.39,31.75-3.63,36.47-30.66,1.48,27.36,3.86,29.86,32.6,34.31-29.09,1.39-31.75,3.63-36.47,30.66-1.48-27.36-3.86-29.86-32.6-34.31Z"/>
              <path class="st21" d="M788.77,455.84c29.09-1.39,31.75-3.63,36.47-30.66,1.48,27.36,3.86,29.86,32.6,34.31-29.09,1.39-31.75,3.63-36.47,30.66-1.48-27.36-3.86-29.86-32.6-34.31Z"/>
            </g>
            <g>
              <path class="st21" d="M423.59,608.69"/>
              <path class="st21" d="M423.59,614.69c7.72,0,7.73-12,0-12s-7.73,12,0,12h0Z"/>
            </g>
          </g>
        </g>
        <path class="st4" d="M378.96,562.7c114.98-139.07,282.88-154,347.7-95.31,55.77,50.5-22.84,203.25,11.51,218.78,42.65,19.28,154.23-220.79,278.62-209.59,104.78,9.44,135.86,189.72,214.15,185.76,80.18-4.05,178.21-158.12,135.86-223.6-95.89-148.26-955.32,102.28-943.2,212.77,8.09,73.74,413.09,164.43,590.89-4.33,59.32-56.31,81.02-129.78,88.65-189.52"/>
      </g>
    </g>
    <g>
      <g>
        <polygon class="st11" points="412.98 660.12 412.98 569.06 433.39 569.06 433.39 494.9 412.98 494.9 412.98 405.14 517.17 405.14 525.43 434.98 533.62 405.14 635.22 405.14 635.22 494.9 614.81 494.9 614.81 569.06 635.22 569.06 635.22 660.12 412.98 660.12"/>
        <path class="st11" d="M447.45,493.42h36.29l32.95,101.99,32.7-101.99h33.84v3.08h-2.52c-5.39.73-9.39,2.71-12,6.67-2.61,3.96-4.28,18.22-4.28,18.22v77.35s1.68,14.18,4.31,18.17,6.62,5.99,11.97,5.79h2.52v4.1h-56.4v-4.1h4.26c5.35.2,9.32-1.78,11.93-5.75,2.61-3.96,3.65-18.22,3.65-18.22v-89.93h-.25l-37.5,118h-1.72l-38.61-118h-.25v85.81c0,5.97.76,11.03,2.29,15.19s3.77,7.37,6.74,9.62c2.97,2.25,6.57,3.48,10.81,3.67v3.71h-40.73v-4.1h.58c5.64.2,10.06-2.31,13.28-7.32,3.22-5.01,4.94-20.36,4.94-20.36v-73.64s-1.41-14.33-4-18.27c-2.59-3.93-6.6-5.9-12.03-6.62h-2.77v-3.08Z"/>
        <path class="st11" d="M561.52,661.42v-83.72l22.61-4.52c1.25-3.42,2.99-8.85,5.06-17.14l37.8-152.19h58.37l43.51,167.82h23.13v89.76h-190.49Z"/>
        <path class="st11" d="M636.14,492.4h2.05l35.34,116.7c1.13,3.63,2.4,6.62,3.8,8.98,1.4,2.36,2.99,4.06,4.75,5.11,1.76,1.05,3.84,1.58,6.23,1.58h2.51v3.08h-51.18v-4.1h6.53c3.25,0,5.62-.68,7.12-2.05,1.5-1.36,2.25-3.47,2.25-6.33,0-1.78-.3-3.93-.89-6.47-.6-2.54-1.9-7.14-3.91-13.8-.12-.38-.31-1.01-.55-1.9-.25-.89-.51-1.74-.8-2.57l-1.42-4.85h-36.49l-2.77,9.9c-.9,3.36-1.36,6.75-1.36,10.18,0,2.92.52,5.8,1.57,8.66,1.05,2.86,2.41,5.01,4.1,6.47,1.11,1.02,2.1,1.7,2.99,2.05.88.35,2.15.59,3.79.71v4.1h-35.51v-3.71c2.58-.44,4.63-1.14,6.15-2.09,1.52-.95,3.21-2.53,5.09-4.75,4.41-5.2,8.72-14.99,12.92-29.37l27.71-95.52ZM629.32,523.42l-17.17,59.27h34.77l-17.6-59.27Z"/>
        <polygon class="st11" points="690.78 660.12 690.78 576.86 677.17 576.86 677.17 405.14 863.13 405.14 863.13 572.99 849.52 574.48 849.52 660.12 690.78 660.12"/>
        <path class="st11" d="M690.81,493.42h102.36v67.74l-2.04.19c-1.04-16.87-4.38-31.36-10.02-43.48-6.68-13.76-15.16-20.64-25.43-21.37h-4.29v102.24s5,24.17,15.56,23.97h13.68v4.1h-77.29v-4.1h13.49c10.61.2,15.75-23.97,15.75-23.97v-101.21h-5.61c-10.39,0-18.82,7.38-25.31,22.15-3.2,7.26-5.63,15.9-7.29,25.94-.54,3.41-1.08,8.58-1.62,15.53h-1.95v-67.72Z"/>
        <polygon class="st11" points="801.9 660.12 801.9 569.06 821.17 569.06 821.17 494.9 801.9 494.9 801.9 405.14 936.83 405.14 936.83 496.2 916.42 496.2 916.42 569.06 936.83 569.06 936.83 660.12 801.9 660.12"/>
        <path class="st11" d="M805.71,622.71h1.78c5.41,0,9.43-1.99,12.05-5.97,2.62-3.98,3.93-10.08,3.93-18.3v-80.63c-.34-4.2-.85-7.55-1.54-10.03-.69-2.48-1.73-4.55-3.11-6.21-2.52-3.38-6.29-5.06-11.32-5.06h-1.78v-3.08h55.36v4.1h-2.51c-5.54,0-9.64,1.96-12.3,5.87-2.66,3.92-3.99,9.98-3.99,18.19v77.04c0,8.15,1.34,14.2,4.02,18.15,2.68,3.95,6.77,5.92,12.27,5.92h2.51v4.1h-55.36v-4.1Z"/>
        <polygon class="st11" points="869.93 660.12 869.93 569.06 889.21 569.06 889.21 496.2 869.93 496.2 869.93 406.44 1049.08 406.44 1049.08 565.15 1015.06 565.15 1015.06 619.79 1008.26 619.79 1008.26 660.12 869.93 660.12"/>
        <path class="st11" d="M904.93,497.53v58.49h5.49c5.78,0,10.29-2.91,13.54-8.73,3.24-5.82,5.57-15.22,6.99-28.21h2.18v75.93h-2.31c-.67-6.57-1.48-11.78-2.43-15.63-.96-3.85-2.27-7.3-3.93-10.33-3.54-6.63-8.61-9.95-15.22-9.95h-4.3v39.78c0,8.07,1.29,14.06,3.86,17.97,2.57,3.91,6.5,5.86,11.77,5.86h6.3v4.1h-58.49v-4.1h2.15c5.28,0,9.21-1.97,11.77-5.92,2.56-3.95,3.84-10,3.84-18.15v-77.04c0-8.21-1.27-14.28-3.81-18.19-2.54-3.92-6.47-5.87-11.8-5.87h-2.15v-3.08h96.09v57.46h-2.08c-.63-4.99-1.32-9.56-2.08-13.72-.76-4.16-1.49-7.35-2.21-9.59-2.1-7.1-4.66-12.93-7.66-17.5-3.01-4.57-6.56-7.98-10.66-10.21-4.1-2.24-8.76-3.36-13.97-3.36h-20.88Z"/>
        <polygon class="st11" points="993.44 660.12 990.31 570.36 1012.8 570.36 1012.8 496.2 992.39 496.2 992.39 406.44 1131.85 406.44 1131.85 496.2 1108.04 496.2 1108.04 500.11 1172.67 500.11 1172.67 660.12 993.44 660.12"/>
        <path class="st11" d="M981.18,494.45h59.54v3.08h-6.54c-5.39.2-9.38,2.16-11.97,6.09-2.59,3.93-3.43,18.27-3.43,18.27v101.84h22.5c4.43,0,8.62-1.51,12.55-4.53,3.94-3.02,7.35-7.23,10.25-12.64,1.74-3.37,3.27-6.71,4.6-10.01,1.33-3.31,2.59-7.31,3.79-12.02,1.2-4.7,2.38-10.11,3.54-16.21h2.3v58.49h-97.52l-.13-3.08h3.26c10.61-.14,16.05-24.5,16.05-24.5v-77.35s-5.44-24.16-16.05-24.36h-2.75v-3.08Z"/>
        <path class="st11" d="M1108.04,662.72v-83.72l22.61-4.53c1.25-3.42,2.99-8.85,5.06-17.14l37.81-152.2h58.38l43.18,166.52h23.46v91.06h-190.49Z"/>
        <path class="st11" d="M1139.58,493.42h2.05l35.07,115.79c1.12,3.6,2.38,6.57,3.77,8.91,1.39,2.34,2.96,4.03,4.71,5.07,1.75,1.04,3.81,1.56,6.18,1.56h2.89v4.1h-51.18v-4.1h6.53c3.25,0,5.62-.68,7.12-2.05,1.5-1.36,2.25-3.47,2.25-6.33,0-1.78-.3-3.93-.89-6.47-.6-2.54-1.9-7.14-3.91-13.8-.12-.38-.31-1.01-.55-1.9-.25-.89-.51-1.74-.8-2.57l-1.42-4.85h-36.48l-2.77,9.9c-.9,3.36-1.36,6.75-1.36,10.18,0,2.92.52,5.8,1.57,8.66,1.05,2.86,2.41,5.01,4.1,6.47,1.11,1.02,2.11,1.7,2.99,2.05.88.35,2.15.59,3.79.71v4.1h-35.51v-3.71c2.58-.44,4.63-1.14,6.15-2.09,1.52-.95,3.21-2.53,5.09-4.75,4.41-5.2,8.72-14.99,12.92-29.37l27.71-95.52ZM1132.57,524.44l-17.16,59.27h34.77l-17.6-59.27Z"/>
        <path class="st11" d="M1222.56,661.42v-91.06h20.41v-74.15h-20.41v-89.76h107.12c9.34,0,18.53,1.68,27.31,4.98,10.22,3.85,18.88,9.57,25.74,17,7.37,7.82,13.13,17.27,17.13,28.1,3.91,10.6,5.89,21.96,5.89,33.76,0,13.21-2.69,25.67-7.88,36.88,8.05,13.94,12.3,30.35,12.3,48.22,0,16.72-3.61,31.95-10.73,45.27-7.3,13.67-17.64,24.22-30.72,31.35-11.47,6.25-24.55,9.42-38.86,9.42h-107.33Z"/>
        <path class="st11" d="M1193.21,494.45h64.21c4.97,0,9.78.75,14.42,2.24,4.64,1.5,8.28,3.48,10.91,5.97,3.26,2.93,5.79,6.48,7.59,10.65,1.8,4.17,2.7,8.64,2.7,13.41,0,7.77-2.82,14.48-8.47,20.15-2.26,2.29-4.68,4.2-7.27,5.73-2.59,1.53-6.25,3.28-10.97,5.25v.38c6.02,1.72,10.97,3.79,14.86,6.21,10.62,7.13,15.93,16.93,15.93,29.41,0,6.87-1.6,12.87-4.8,18-3.2,5.12-7.77,9.07-13.7,11.84-5.94,2.77-12.94,4.15-21.01,4.15h-64.4v-4.1h2.61c5.48,0,9.55-1.99,12.21-5.96,2.65-3.97,3.98-10.06,3.98-18.27v-77.55c0-8.27-1.33-14.4-3.98-18.41-2.66-4.01-6.72-6.01-12.21-6.01h-2.61v-3.08ZM1230.81,497.53v58.49h19.07c15.65,0,23.47-10.35,23.47-31.06,0-9.3-1.67-16.2-5-20.69-3.33-4.49-8.49-6.74-15.45-6.74h-22.09ZM1230.81,559.09v64.64h19.77c8.35,0,14.75-2.82,19.21-8.46,4.45-5.64,6.67-13.66,6.67-24.05,0-8.86-1.81-15.9-5.42-21.13-2.73-4.14-6.07-7.01-10.01-8.61-3.95-1.59-9.72-2.39-17.32-2.39h-12.91Z"/>
        <text class="st2" transform="translate(503.03 695.5) rotate(.49) scale(1.11 1) skewX(-.02)"><tspan x="0" y="0">数学</tspan></text>
        <g>
          <path class="st23" d="M1123.36,603.12c-.32-94.54-.63-94.55-5.54-.18.34-94.67-3.58-96.83-67.87-37.5,58.59-66.66,57.15-71.38-24.88-81.58,82.75-4.43,89.77-12.05,98.24-106.59.32,94.54.63,94.55,5.54.18,4.2,94.96,10.98,103.66,92.75,119.07-82.75,4.44-89.77,12.06-98.24,106.6Z"/>
          <path class="st12" d="M1123.36,603.12c-.32-94.54-.63-94.55-5.54-.18.34-94.67-3.58-96.83-67.87-37.5,58.59-66.66,57.15-71.38-24.88-81.58,82.75-4.43,89.77-12.05,98.24-106.59.32,94.54.63,94.55,5.54.18,4.2,94.96,10.98,103.66,92.75,119.07-82.75,4.44-89.77,12.06-98.24,106.6Z"/>
        </g>
        <g>
          <path class="st23" d="M1036.01,524.92c26.39-1.32,28.8-3.44,33.09-29.05,1.34,25.92,3.5,28.29,29.57,32.5-26.39,1.32-28.8,3.44-33.09,29.05-1.34-25.92-3.5-28.29-29.57-32.5Z"/>
          <path class="st12" d="M1036.01,524.92c26.39-1.32,28.8-3.44,33.09-29.05,1.34,25.92,3.5,28.29,29.57,32.5-26.39,1.32-28.8,3.44-33.09,29.05-1.34-25.92-3.5-28.29-29.57-32.5Z"/>
        </g>
        <g>
          <path class="st23" d="M629.08,546.6c-.17-90.53-.46-90.54-5.16-.17-3.9-90.93-10.29-99.25-87.45-113.94,78.1-4.33,84.74-11.63,92.86-102.17.17,90.53.46,90.54,5.16.17-.36,90.65,3.5,92.86,65.02,37.15-56.28,62.76-54.98,67.2,22.43,76.79-78.09,4.32-84.74,11.63-92.86,102.16Z"/>
          <path class="st12" d="M629.08,546.6c-.17-90.53-.46-90.54-5.16-.17-3.9-90.93-10.29-99.25-87.45-113.94,78.1-4.33,84.74-11.63,92.86-102.17.17,90.53.46,90.54,5.16.17-.36,90.65,3.5,92.86,65.02,37.15-56.28,62.76-54.98,67.2,22.43,76.79-78.09,4.32-84.74,11.63-92.86,102.16Z"/>
        </g>
        <g>
          <path class="st23" d="M585.92,484.4c22.1-1.22,24.13-3.08,27.78-25.56,1.07,22.74,2.87,24.82,24.69,28.46-22.1,1.22-24.13,3.08-27.78,25.56-1.07-22.74-2.87-24.82-24.69-28.46Z"/>
          <path class="st12" d="M585.92,484.4c22.1-1.22,24.13-3.08,27.78-25.56,1.07,22.74,2.87,24.82,24.69,28.46-22.1,1.22-24.13,3.08-27.78,25.56-1.07-22.74-2.87-24.82-24.69-28.46Z"/>
        </g>
        <g>
          <path class="st23" d="M869.9,518.09c-.33-94.54-.63-94.55-5.55-.18-4.2-94.96-10.97-103.66-92.75-119.07,82.75-4.43,89.77-12.06,98.24-106.6.33,94.54.63,94.55,5.55.18,4.2,94.96,10.97,103.66,92.75,119.07-82.75,4.43-89.77,12.06-98.24,106.6Z"/>
          <path class="st12" d="M869.9,518.09c-.33-94.54-.63-94.55-5.55-.18-4.2-94.96-10.97-103.66-92.75-119.07,82.75-4.43,89.77-12.06,98.24-106.6.33,94.54.63,94.55,5.55.18,4.2,94.96,10.97,103.66,92.75,119.07-82.75,4.43-89.77,12.06-98.24,106.6Z"/>
        </g>
        <g>
          <path class="st23" d="M802.52,457.86c26.39-1.32,28.8-3.44,33.09-29.05,1.34,25.92,3.5,28.29,29.57,32.5-26.39,1.32-28.8,3.44-33.09,29.05-1.34-25.92-3.5-28.29-29.57-32.5Z"/>
          <path class="st12" d="M802.52,457.86c26.39-1.32,28.8-3.44,33.09-29.05,1.34,25.92,3.5,28.29,29.57,32.5-26.39,1.32-28.8,3.44-33.09,29.05-1.34-25.92-3.5-28.29-29.57-32.5Z"/>
        </g>
        <g>
          <path class="st23" d="M476.22,586.57"/>
          <path class="st23" d="M476.22,592.57c7.72,0,7.73-12,0-12s-7.73,12,0,12h0Z"/>
        </g>
        <g>
          <path class="st23" d="M471.23,602.66"/>
          <path class="st23" d="M471.23,608.66c7.72,0,7.73-12,0-12s-7.73,12,0,12h0Z"/>
        </g>
      </g>
      <g>
        <path class="st15" d="M408.83,485.69h38.88l35.3,99.4,35.04-99.4h36.26v3h-2.7c-5.77.71-10.06,2.64-12.85,6.5-2.8,3.86-4.59,17.76-4.59,17.76v75.38s1.8,13.82,4.62,17.71,7.09,5.84,12.82,5.65h2.7v4h-60.43v-4h4.57c5.73.19,9.99-1.74,12.79-5.6,2.8-3.86,3.91-17.76,3.91-17.76v-87.64h-.27l-40.18,115h-1.84l-41.37-115h-.27v83.63c0,5.82.82,10.75,2.45,14.8s4.04,7.18,7.22,9.37c3.18,2.2,7.04,3.39,11.59,3.57v3.62h-43.64v-4h.62c6.04.19,10.78-2.25,14.23-7.13,3.45-4.88,5.3-19.84,5.3-19.84v-71.77s-1.51-13.97-4.29-17.8c-2.77-3.83-7.07-5.75-12.89-6.46h-2.97v-3Z"/>
        <path class="st15" d="M611,484.69h2.19l37.86,113.74c1.21,3.54,2.57,6.45,4.08,8.75,1.5,2.3,3.2,3.96,5.09,4.98,1.89,1.02,4.11,1.54,6.67,1.54h2.69v3h-54.83v-4h7c3.48,0,6.02-.66,7.63-1.99,1.61-1.33,2.41-3.39,2.41-6.17,0-1.73-.32-3.83-.96-6.31-.64-2.47-2.04-6.95-4.19-13.45-.13-.37-.33-.99-.59-1.85-.26-.86-.55-1.7-.86-2.5l-1.52-4.73h-39.09l-2.97,9.64c-.97,3.28-1.45,6.58-1.45,9.92,0,2.84.56,5.66,1.68,8.44,1.12,2.78,2.59,4.88,4.39,6.31,1.19.99,2.26,1.65,3.2,1.99.95.34,2.3.57,4.06.7v4h-38.05v-3.61c2.76-.43,4.96-1.11,6.59-2.04,1.63-.93,3.44-2.47,5.45-4.63,4.72-5.06,9.34-14.6,13.84-28.62l29.69-93.09ZM603.69,514.92l-18.39,57.77h37.25l-18.86-57.77Z"/>
        <path class="st15" d="M669.57,485.69h109.67v66.02l-2.18.19c-1.12-16.44-4.7-30.57-10.74-42.37-7.16-13.41-16.24-20.12-27.25-20.83h-4.59v99.64s5.35,23.55,16.67,23.36h14.66v4h-82.81v-4h14.46c11.37.19,16.88-23.36,16.88-23.36v-98.64h-6.01c-11.13,0-20.17,7.2-27.12,21.59-3.43,7.07-6.03,15.5-7.81,25.28-.58,3.32-1.16,8.37-1.74,15.13h-2.09v-66Z"/>
        <path class="st15" d="M792.67,611.69h1.9c5.8,0,10.1-1.94,12.91-5.82,2.81-3.88,4.21-9.82,4.21-17.83v-78.59c-.36-4.1-.91-7.36-1.65-9.78-.74-2.42-1.85-4.44-3.34-6.05-2.7-3.29-6.74-4.93-12.13-4.93h-1.9v-3h59.31v4h-2.69c-5.93,0-10.33,1.91-13.18,5.73-2.85,3.82-4.28,9.73-4.28,17.73v75.08c0,7.94,1.44,13.84,4.31,17.69,2.87,3.85,7.25,5.77,13.14,5.77h2.69v4h-59.31v-4Z"/>
        <path class="st15" d="M898.98,489.69v57h5.88c6.19,0,11.03-2.84,14.51-8.51,3.48-5.67,5.97-14.84,7.49-27.49h2.34v74h-2.47c-.71-6.4-1.58-11.48-2.61-15.24-1.03-3.75-2.43-7.11-4.21-10.07-3.79-6.46-9.23-9.7-16.31-9.7h-4.61v38.77c0,7.86,1.38,13.7,4.14,17.51,2.76,3.81,6.96,5.72,12.61,5.72h6.75v4h-62.67v-4h2.3c5.66,0,9.86-1.92,12.61-5.77,2.74-3.85,4.11-9.74,4.11-17.69v-75.08c0-8-1.36-13.91-4.08-17.73-2.72-3.82-6.93-5.73-12.64-5.73h-2.3v-3h102.95v56h-2.23c-.68-4.86-1.42-9.32-2.23-13.37-.81-4.05-1.6-7.17-2.37-9.35-2.25-6.92-4.99-12.6-8.21-17.06-3.22-4.45-7.03-7.77-11.42-9.96-4.39-2.18-9.38-3.27-14.97-3.27h-22.37Z"/>
        <path class="st15" d="M980.68,486.69h63.79v3h-7.01c-5.77.19-10.05,2.11-12.82,5.94-2.77,3.83-3.67,17.8-3.67,17.8v99.26h24.1c4.75,0,9.23-1.47,13.45-4.41,4.22-2.94,7.88-7.05,10.99-12.32,1.86-3.28,3.51-6.54,4.93-9.76,1.42-3.22,2.77-7.12,4.06-11.71,1.29-4.59,2.55-9.85,3.8-15.8h2.46v57h-104.48l-.13-3h3.49c11.37-.14,17.2-23.87,17.2-23.87v-75.38s-5.83-23.55-17.2-23.74h-2.95v-3Z"/>
        <path class="st15" d="M1150.39,485.69h2.2l37.57,112.85c1.2,3.51,2.55,6.4,4.04,8.68,1.49,2.28,3.18,3.92,5.05,4.94,1.87,1.02,4.08,1.52,6.62,1.52h3.1v4h-54.83v-4h7c3.48,0,6.02-.66,7.63-1.99,1.61-1.33,2.41-3.39,2.41-6.17,0-1.73-.32-3.83-.96-6.31-.64-2.47-2.04-6.95-4.19-13.45-.13-.37-.33-.99-.59-1.85-.26-.86-.55-1.7-.86-2.5l-1.52-4.73h-39.09l-2.97,9.64c-.97,3.28-1.45,6.58-1.45,9.92,0,2.84.56,5.66,1.68,8.44,1.12,2.78,2.59,4.88,4.39,6.31,1.19.99,2.26,1.65,3.2,1.99.95.34,2.3.57,4.06.7v4h-38.05v-3.61c2.76-.43,4.96-1.11,6.59-2.04,1.63-.93,3.44-2.47,5.45-4.63,4.73-5.06,9.34-14.6,13.84-28.62l29.69-93.09ZM1142.88,515.92l-18.39,57.77h37.25l-18.86-57.77Z"/>
        <path class="st15" d="M1207.85,486.69h68.8c5.33,0,10.48.73,15.45,2.19,4.97,1.46,8.87,3.4,11.69,5.82,3.49,2.85,6.2,6.31,8.13,10.38,1.93,4.06,2.89,8.42,2.89,13.07,0,7.57-3.02,14.11-9.07,19.63-2.42,2.23-5.02,4.09-7.79,5.58-2.78,1.49-6.7,3.2-11.76,5.12v.37c6.45,1.67,11.76,3.69,15.92,6.05,11.38,6.95,17.06,16.5,17.06,28.66,0,6.7-1.71,12.55-5.14,17.54-3.43,4.99-8.32,8.84-14.68,11.54-6.36,2.7-13.86,4.05-22.51,4.05h-69v-4h2.8c5.87,0,10.23-1.94,13.08-5.81,2.84-3.87,4.27-9.81,4.27-17.8v-75.58c0-8.06-1.42-14.04-4.27-17.94-2.85-3.9-7.2-5.86-13.08-5.86h-2.8v-3ZM1248.13,489.69v57h20.43c16.76,0,25.15-10.09,25.15-30.27,0-9.06-1.79-15.79-5.36-20.16-3.57-4.38-9.09-6.57-16.55-6.57h-23.66ZM1248.13,549.69v63h21.18c8.95,0,15.81-2.75,20.58-8.25,4.77-5.5,7.15-13.31,7.15-23.44,0-8.64-1.93-15.5-5.8-20.6-2.92-4.04-6.5-6.83-10.73-8.39-4.23-1.55-10.41-2.33-18.55-2.33h-13.83Z"/>
        <text class="st6" transform="translate(468.38 682.64) rotate(.45) scale(1.22 1) skewX(-.09)"><tspan x="0" y="0">数学</tspan></text>
        <g>
          <path class="st22" d="M1039.42,516.39c28.27-1.29,30.86-3.35,35.45-28.31,1.44,25.26,3.75,27.57,31.68,31.68-28.27,1.29-30.86,3.35-35.45,28.31-1.44-25.26-3.75-27.57-31.68-31.68Z"/>
          <path class="st12" d="M1039.42,516.39c28.27-1.29,30.86-3.35,35.45-28.31,1.44,25.26,3.75,27.57,31.68,31.68-28.27,1.29-30.86,3.35-35.45,28.31-1.44-25.26-3.75-27.57-31.68-31.68Z"/>
        </g>
        <g>
          <path class="st22" d="M557.2,476.9c23.68-1.19,25.85-3,29.76-24.91,1.14,22.17,3.07,24.19,26.45,27.73-23.68,1.19-25.85,3-29.76,24.91-1.14-22.17-3.07-24.19-26.45-27.73Z"/>
          <path class="st12" d="M557.2,476.9c23.68-1.19,25.85-3,29.76-24.91,1.14,22.17,3.07,24.19,26.45,27.73-23.68,1.19-25.85,3-29.76,24.91-1.14-22.17-3.07-24.19-26.45-27.73Z"/>
        </g>
        <g>
          <path class="st22" d="M789.26,451.03c28.27-1.29,30.86-3.35,35.45-28.31,1.44,25.26,3.75,27.57,31.68,31.68-28.27,1.29-30.86,3.35-35.45,28.31-1.44-25.26-3.75-27.57-31.68-31.68Z"/>
          <path class="st12" d="M789.26,451.03c28.27-1.29,30.86-3.35,35.45-28.31,1.44,25.26,3.75,27.57,31.68,31.68-28.27,1.29-30.86,3.35-35.45,28.31-1.44-25.26-3.75-27.57-31.68-31.68Z"/>
        </g>
        <g>
          <path class="st22" d="M434.31,592.15"/>
          <path class="st23" d="M434.31,598.15c7.72,0,7.73-12,0-12s-7.73,12,0,12h0Z"/>
        </g>
      </g>
      <g>
        <path class="st25" d="M378.96,562.7c114.98-139.07,282.88-154,347.7-95.31,55.77,50.5-22.84,203.25,11.51,218.78,42.65,19.28,154.23-220.79,278.62-209.59,104.78,9.44,135.86,189.72,214.15,185.76,80.18-4.05,178.21-158.12,135.86-223.6-95.89-148.26-955.32,102.28-943.2,212.77,8.09,73.74,413.09,164.43,590.89-4.33,59.32-56.31,81.02-129.78,88.65-189.52"/>
        <g class="st27">
          <g>
            <path class="st17" d="M397.38,493.39h40l36.32,107.65,36.05-107.65h37.31v3.25h-2.78c-5.94.77-10.35,2.86-13.22,7.04-2.88,4.18-4.72,19.23-4.72,19.23v81.65s1.85,14.96,4.75,19.18,7.3,6.33,13.19,6.12h2.78v4.33h-62.17v-4.33h4.7c5.89.21,10.28-1.88,13.15-6.07,2.88-4.18,4.02-19.23,4.02-19.23v-94.92h-.28l-41.34,124.55h-1.89l-42.56-124.55h-.28v90.58c0,6.3.84,11.64,2.52,16.03,1.68,4.39,4.16,7.77,7.43,10.15,3.27,2.38,7.25,3.67,11.92,3.87v3.92h-44.9v-4.33h.64c6.21.21,11.09-2.43,14.64-7.72,3.54-5.29,5.45-21.49,5.45-21.49v-77.73s-1.56-15.13-4.41-19.28c-2.85-4.15-7.27-6.23-13.26-6.99h-3.05v-3.25Z"/>
            <path class="st3" d="M605.37,492.3h2.26l38.96,123.19c1.25,3.83,2.64,6.99,4.19,9.48,1.55,2.49,3.29,4.28,5.23,5.39,1.94,1.11,4.23,1.66,6.86,1.66h2.77v3.25h-56.41v-4.33h7.2c3.58,0,6.19-.72,7.85-2.16,1.65-1.44,2.48-3.67,2.48-6.68,0-1.87-.33-4.15-.99-6.83-.66-2.68-2.1-7.53-4.31-14.56-.14-.4-.34-1.07-.61-2.01-.27-.94-.57-1.84-.88-2.71l-1.56-5.12h-40.22l-3.06,10.45c-1,3.55-1.49,7.13-1.49,10.75,0,3.08.58,6.13,1.73,9.14,1.16,3.01,2.66,5.29,4.52,6.83,1.22,1.07,2.32,1.79,3.29,2.16.97.37,2.37.62,4.18.75v4.33h-39.14v-3.91c2.84-.47,5.1-1.2,6.78-2.21,1.67-1,3.54-2.67,5.61-5.02,4.86-5.48,9.61-15.82,14.24-31l30.55-100.83ZM597.86,525.05l-18.92,62.57h38.32l-19.4-62.57Z"/>
            <path class="st13" d="M665.64,493.39h112.83v71.5l-2.24.2c-1.15-17.81-4.83-33.11-11.05-45.89-7.37-14.53-16.71-21.79-28.04-22.56h-4.72v107.92s5.51,25.51,17.15,25.3h15.08v4.33h-85.2v-4.33h14.87c11.69.21,17.37-25.3,17.37-25.3v-106.84h-6.18c-11.45,0-20.75,7.79-27.9,23.38-3.53,7.66-6.21,16.79-8.04,27.38-.6,3.6-1.19,9.06-1.79,16.39h-2.15v-71.48Z"/>
            <path class="st7" d="M792.28,629.85h1.96c5.96,0,10.39-2.1,13.28-6.3,2.89-4.2,4.33-10.64,4.33-19.31v-85.11c-.37-4.44-.94-7.97-1.7-10.59-.76-2.62-1.91-4.81-3.43-6.55-2.77-3.56-6.93-5.34-12.48-5.34h-1.96v-3.25h61.02v4.33h-2.77c-6.1,0-10.62,2.07-13.56,6.2-2.93,4.14-4.4,10.54-4.4,19.21v81.32c0,8.6,1.48,14.99,4.44,19.16,2.96,4.17,7.46,6.25,13.52,6.25h2.77v4.33h-61.02v-4.33Z"/>
            <path class="st20" d="M901.66,497.72v61.74h6.05c6.37,0,11.35-3.07,14.92-9.22,3.58-6.14,6.14-16.07,7.7-29.77h2.41v80.15h-2.55c-.73-6.93-1.63-12.44-2.68-16.5-1.05-4.07-2.5-7.7-4.33-10.9-3.9-7-9.49-10.5-16.78-10.5h-4.74v41.99c0,8.52,1.42,14.84,4.26,18.97,2.84,4.13,7.16,6.19,12.97,6.19h6.95v4.33h-64.47v-4.33h2.37c5.82,0,10.15-2.08,12.97-6.25,2.82-4.17,4.23-10.55,4.23-19.16v-81.32c0-8.67-1.4-15.07-4.2-19.21-2.8-4.13-7.13-6.2-13-6.2h-2.37v-3.25h105.92v60.65h-2.29c-.69-5.26-1.46-10.09-2.29-14.48-.83-4.39-1.65-7.76-2.43-10.12-2.32-7.49-5.13-13.65-8.45-18.48-3.31-4.82-7.23-8.42-11.75-10.78-4.52-2.36-9.65-3.54-15.4-3.54h-23.01Z"/>
            <path class="st9" d="M985.7,494.47h65.63v3.25h-7.21c-5.94.21-10.34,2.28-13.19,6.43-2.85,4.15-3.78,19.28-3.78,19.28v107.5h24.8c4.89,0,9.5-1.59,13.84-4.78,4.34-3.19,8.11-7.63,11.3-13.34,1.92-3.56,3.61-7.08,5.07-10.57,1.46-3.49,2.85-7.72,4.18-12.68,1.32-4.97,2.63-10.67,3.9-17.11h2.53v61.74h-107.49l-.14-3.25h3.59c11.69-.15,17.69-25.86,17.69-25.86v-81.65s-6-25.51-17.69-25.72h-3.03v-3.25Z"/>
            <path class="st14" d="M1160.31,493.39h2.26l38.65,122.23c1.24,3.8,2.62,6.94,4.16,9.4,1.54,2.47,3.27,4.25,5.19,5.35,1.93,1.1,4.2,1.65,6.81,1.65h3.19v4.33h-56.41v-4.33h7.2c3.58,0,6.19-.72,7.85-2.16,1.65-1.44,2.48-3.67,2.48-6.68,0-1.87-.33-4.15-.98-6.83-.66-2.68-2.1-7.53-4.31-14.56-.14-.4-.34-1.07-.61-2.01-.27-.94-.57-1.84-.88-2.71l-1.56-5.12h-40.22l-3.06,10.45c-1,3.55-1.49,7.13-1.49,10.75,0,3.08.58,6.13,1.73,9.14,1.15,3.01,2.66,5.29,4.52,6.83,1.22,1.07,2.32,1.79,3.3,2.16.97.37,2.37.62,4.18.75v4.33h-39.14v-3.91c2.84-.47,5.1-1.2,6.78-2.21,1.67-1,3.54-2.67,5.61-5.02,4.86-5.48,9.61-15.82,14.24-31l30.55-100.83ZM1152.58,526.13l-18.92,62.57h38.33l-19.4-62.57Z"/>
            <path class="st5" d="M1219.42,494.47h70.78c5.48,0,10.78.79,15.9,2.37,5.11,1.58,9.12,3.68,12.03,6.3,3.59,3.09,6.38,6.84,8.36,11.24,1.98,4.4,2.97,9.12,2.97,14.16,0,8.2-3.11,15.29-9.33,21.27-2.49,2.42-5.16,4.43-8.02,6.05-2.86,1.61-6.89,3.46-12.1,5.54v.4c6.64,1.81,12.1,4,16.38,6.55,11.7,7.53,17.56,17.87,17.56,31.04,0,7.26-1.76,13.59-5.29,19-3.52,5.41-8.56,9.57-15.1,12.5-6.54,2.92-14.26,4.38-23.15,4.38h-70.98v-4.33h2.88c6.04,0,10.53-2.1,13.45-6.29,2.93-4.19,4.39-10.62,4.39-19.28v-81.86c0-8.73-1.46-15.2-4.39-19.43-2.93-4.23-7.41-6.34-13.45-6.34h-2.88v-3.25ZM1260.87,497.72v61.74h21.02c17.25,0,25.87-10.93,25.87-32.78,0-9.82-1.84-17.1-5.51-21.84-3.68-4.74-9.35-7.11-17.03-7.11h-24.35ZM1260.87,562.7v68.23h21.79c9.21,0,16.26-2.98,21.17-8.93,4.9-5.96,7.36-14.42,7.36-25.39,0-9.35-1.99-16.79-5.97-22.31-3.01-4.37-6.69-7.4-11.04-9.08-4.35-1.68-10.71-2.52-19.09-2.52h-14.23Z"/>
            <text class="st16" transform="translate(458.88 680.64) rotate(.47) scale(.68 .58) skewX(-.05)"><tspan x="0" y="0">数学</tspan></text>
            <g>
              <path class="st26" d="M1046.14,526.63c29.09-1.39,31.75-3.63,36.47-30.66,1.48,27.36,3.86,29.86,32.6,34.31-29.09,1.39-31.75,3.63-36.47,30.66-1.48-27.36-3.86-29.86-32.6-34.31Z"/>
              <path class="st12" d="M1046.14,526.63c29.09-1.39,31.75-3.63,36.47-30.66,1.48,27.36,3.86,29.86,32.6,34.31-29.09,1.39-31.75,3.63-36.47,30.66-1.48-27.36-3.86-29.86-32.6-34.31Z"/>
            </g>
            <g>
              <path class="st28" d="M550.02,483.86c24.36-1.28,26.59-3.25,30.62-26.98,1.18,24.01,3.16,26.2,27.22,30.04-24.36,1.28-26.59,3.25-30.62,26.98-1.18-24.01-3.16-26.2-27.22-30.04Z"/>
              <path class="st12" d="M550.02,483.86c24.36-1.28,26.59-3.25,30.62-26.98,1.18,24.01,3.16,26.2,27.22,30.04-24.36,1.28-26.59,3.25-30.62,26.98-1.18-24.01-3.16-26.2-27.22-30.04Z"/>
            </g>
            <g>
              <path class="st0" d="M788.77,455.84c29.09-1.39,31.75-3.63,36.47-30.66,1.48,27.36,3.86,29.86,32.6,34.31-29.09,1.39-31.75,3.63-36.47,30.66-1.48-27.36-3.86-29.86-32.6-34.31Z"/>
              <path class="st12" d="M788.77,455.84c29.09-1.39,31.75-3.63,36.47-30.66,1.48,27.36,3.86,29.86,32.6,34.31-29.09,1.39-31.75,3.63-36.47,30.66-1.48-27.36-3.86-29.86-32.6-34.31Z"/>
            </g>
            <g>
              <path class="st24" d="M423.59,608.69"/>
              <path class="st23" d="M423.59,614.69c7.72,0,7.73-12,0-12s-7.73,12,0,12h0Z"/>
            </g>
          </g>
        </g>
        <path class="st10" d="M378.96,562.7c114.98-139.07,282.88-154,347.7-95.31,55.77,50.5-22.84,203.25,11.51,218.78,42.65,19.28,154.23-220.79,278.62-209.59,104.78,9.44,135.86,189.72,214.15,185.76,80.18-4.05,178.21-158.12,135.86-223.6-95.89-148.26-955.32,102.28-943.2,212.77,8.09,73.74,413.09,164.43,590.89-4.33,59.32-56.31,81.02-129.78,88.65-189.52"/>
      </g>
    </g>
  </g>
</svg>